<svg width="36" height="36" viewBox="0 0 36 36" fill="none" xmlns="http://www.w3.org/2000/svg">
<path fill-rule="evenodd" clip-rule="evenodd" d="M17.4066 5.94266C16.3103 5.94266 15.4185 6.83778 15.4185 7.93643V8.42001C15.4185 9.51866 16.3096 10.4138 17.4059 10.4138C17.4066 10.4138 17.4066 10.4138 17.4066 10.4138C17.9377 10.4138 18.4363 10.2065 18.8118 9.82991C19.1874 9.45329 19.3948 8.95262 19.3948 8.42001V7.93717C19.3948 7.40456 19.1881 6.90389 18.8125 6.52727C18.437 6.15066 17.9377 5.94266 17.4066 5.94266ZM17.4066 11.1566H17.4059C15.9014 11.1566 14.6777 9.92871 14.6777 8.42001V7.93643C14.6777 6.42773 15.9022 5.19983 17.4066 5.19983C18.1355 5.20057 18.8214 5.48508 19.3363 6.00209C19.8518 6.5191 20.1355 7.20622 20.1355 7.93717V8.42001C20.1355 9.15096 19.8511 9.83808 19.3355 10.3551C18.8207 10.8721 18.1355 11.1566 17.4066 11.1566Z" fill="url(#paint0_linear_0_203)"/>
<path fill-rule="evenodd" clip-rule="evenodd" d="M15.1902 31.0452H14.4495L14.4509 15.8179H15.1917L15.1902 31.0452Z" fill="url(#paint1_linear_0_203)"/>
<path fill-rule="evenodd" clip-rule="evenodd" d="M20.3599 31.0452H19.6191L19.6206 15.8179H20.3614L20.3599 31.0452Z" fill="url(#paint2_linear_0_203)"/>
<path fill-rule="evenodd" clip-rule="evenodd" d="M17.7754 31.0452H17.0339L17.0347 21.4508H17.7754V31.0452Z" fill="url(#paint3_linear_0_203)"/>
<path fill-rule="evenodd" clip-rule="evenodd" d="M21.291 21.8222H19.991V21.0794H21.291C21.5599 21.0794 21.7792 20.8595 21.7792 20.5899V14.6316C21.7799 13.8516 21.2836 13.1623 20.5451 12.9164C18.5214 12.2427 16.2925 12.2434 14.268 12.9157C13.5288 13.1615 13.0332 13.8502 13.0332 14.6309L13.0325 20.5891C13.0325 20.8588 13.251 21.0779 13.5206 21.0787H14.8206V21.8215H13.5199C12.8421 21.8208 12.2917 21.2681 12.2917 20.5884L12.2925 14.6309C12.2925 13.53 12.9925 12.5576 14.0347 12.2107C16.2095 11.4879 18.6043 11.4887 20.7784 12.2115C21.8206 12.5584 22.5206 13.5307 22.5199 14.6316V20.5899C22.5199 21.2696 21.9688 21.8222 21.291 21.8222Z" fill="url(#paint4_linear_0_203)"/>
<path fill-rule="evenodd" clip-rule="evenodd" d="M26.7347 7.59324C25.6385 7.59324 24.7466 8.48686 24.7466 9.58626V10.0698C24.7466 10.6017 24.9533 11.1031 25.3288 11.4797C25.7044 11.8556 26.2036 12.0636 26.7347 12.0636C27.831 12.0636 28.7229 11.1692 28.7229 10.0698V9.587C28.7229 8.48761 27.831 7.59324 26.7347 7.59324ZM26.7347 12.8064C26.0051 12.8064 25.3199 12.5212 24.8051 12.0049C24.2896 11.4879 24.0059 10.8008 24.0059 10.0698V9.58626C24.0059 8.07756 25.2303 6.8504 26.7347 6.8504C28.2392 6.8504 29.4636 8.07756 29.4636 9.587V10.0698C29.4636 11.5785 28.2392 12.8064 26.7347 12.8064Z" fill="url(#paint5_linear_0_203)"/>
<path fill-rule="evenodd" clip-rule="evenodd" d="M8.07776 7.59104C7.54739 7.59104 7.04813 7.79829 6.67257 8.17491C6.29702 8.55152 6.09035 9.05219 6.09035 9.5848V10.0676C6.09035 11.167 6.9822 12.0614 8.07776 12.0614C9.17405 12.0614 10.0659 11.167 10.0666 10.0684V9.5848C10.0666 8.48541 9.17479 7.59104 8.0785 7.59104C8.0785 7.59104 8.0785 7.59104 8.07776 7.59104ZM8.07776 12.8042C6.57331 12.8042 5.34961 11.5763 5.34961 10.0676V9.5848C5.34961 8.85311 5.63331 8.16599 6.14887 7.64972C6.66442 7.13271 7.34961 6.84821 8.07776 6.84821C8.0785 6.84821 8.0785 6.84821 8.0785 6.84821C9.58294 6.84821 10.8074 8.07611 10.8074 9.5848V10.0684C10.8066 11.5771 9.5822 12.8042 8.07776 12.8042Z" fill="url(#paint6_linear_0_203)"/>
<path fill-rule="evenodd" clip-rule="evenodd" d="M29.688 31.046H28.9473L28.948 17.4684H29.6887L29.688 31.046Z" fill="url(#paint7_linear_0_203)"/>
<path fill-rule="evenodd" clip-rule="evenodd" d="M30.6184 23.472H29.3184V22.7292H30.6184C30.888 22.7292 31.1065 22.5093 31.1065 22.2404L31.1072 16.2814C31.1072 15.5014 30.6109 14.8121 29.8732 14.5662C27.8487 13.8932 25.6198 13.8925 23.5954 14.5655L23.3621 13.8605C25.5361 13.1385 27.9317 13.1385 30.1058 13.8613C31.148 14.2082 31.848 15.1805 31.848 16.2814L31.8472 22.2404C31.8472 22.9194 31.2961 23.472 30.6184 23.472Z" fill="url(#paint8_linear_0_203)"/>
<path fill-rule="evenodd" clip-rule="evenodd" d="M24.5183 31.046H23.7776L23.7783 17.4677H24.5191L24.5183 31.046Z" fill="url(#paint9_linear_0_203)"/>
<path fill-rule="evenodd" clip-rule="evenodd" d="M27.1028 31.0459H26.3621L26.3628 23.0999H27.1035L27.1028 31.0459Z" fill="url(#paint10_linear_0_203)"/>
<path fill-rule="evenodd" clip-rule="evenodd" d="M5.86135 31.0438H5.12061L5.12209 17.4655H5.86283L5.86135 31.0438Z" fill="url(#paint11_linear_0_203)"/>
<path fill-rule="evenodd" clip-rule="evenodd" d="M8.44655 31.0437H7.70581L7.70655 23.0984H8.44729L8.44655 31.0437Z" fill="url(#paint12_linear_0_203)"/>
<path fill-rule="evenodd" clip-rule="evenodd" d="M11.031 31.0445H10.291L10.2918 17.4662H11.0325L11.031 31.0445Z" fill="url(#paint13_linear_0_203)"/>
<path fill-rule="evenodd" clip-rule="evenodd" d="M5.49178 23.4691H4.19178C3.514 23.4691 2.96289 22.9164 2.96289 22.2375L2.96363 16.2792C2.96363 15.1776 3.66363 14.2052 4.70585 13.859C6.87993 13.1348 9.27474 13.1355 11.4496 13.8598L11.2162 14.5647C9.19252 13.8902 6.96289 13.8902 4.93919 14.564C4.20067 14.8099 3.70437 15.4985 3.70437 16.2792L3.70363 22.2375C3.70363 22.5071 3.92215 22.7262 4.19178 22.7262H5.49178V23.4691Z" fill="url(#paint14_linear_0_203)"/>
<defs>
<linearGradient id="paint0_linear_0_203" x1="20.71" y1="1.7757" x2="8.51093" y2="8.02786" gradientUnits="userSpaceOnUse">
<stop stop-color="#FF52C1"/>
<stop offset="1" stop-color="#9952FF"/>
</linearGradient>
<linearGradient id="paint1_linear_0_203" x1="15.2698" y1="7.06475" x2="13.1766" y2="7.12182" gradientUnits="userSpaceOnUse">
<stop stop-color="#FF52C1"/>
<stop offset="1" stop-color="#9952FF"/>
</linearGradient>
<linearGradient id="paint2_linear_0_203" x1="20.4395" y1="7.06475" x2="18.3463" y2="7.12182" gradientUnits="userSpaceOnUse">
<stop stop-color="#FF52C1"/>
<stop offset="1" stop-color="#9952FF"/>
</linearGradient>
<linearGradient id="paint3_linear_0_203" x1="17.8535" y1="15.9356" x2="15.7647" y2="16.0259" gradientUnits="userSpaceOnUse">
<stop stop-color="#FF52C1"/>
<stop offset="1" stop-color="#9952FF"/>
</linearGradient>
<linearGradient id="paint4_linear_0_203" x1="23.5965" y1="5.83263" x2="1.68679" y2="18.1787" gradientUnits="userSpaceOnUse">
<stop stop-color="#FF52C1"/>
<stop offset="1" stop-color="#9952FF"/>
</linearGradient>
<linearGradient id="paint5_linear_0_203" x1="30.0381" y1="3.4267" x2="17.8397" y2="9.67932" gradientUnits="userSpaceOnUse">
<stop stop-color="#FF52C1"/>
<stop offset="1" stop-color="#9952FF"/>
</linearGradient>
<linearGradient id="paint6_linear_0_203" x1="11.3819" y1="3.4245" x2="-0.816566" y2="9.67712" gradientUnits="userSpaceOnUse">
<stop stop-color="#FF52C1"/>
<stop offset="1" stop-color="#9952FF"/>
</linearGradient>
<linearGradient id="paint7_linear_0_203" x1="29.7668" y1="9.66369" x2="27.6761" y2="9.72756" gradientUnits="userSpaceOnUse">
<stop stop-color="#FF52C1"/>
<stop offset="1" stop-color="#9952FF"/>
</linearGradient>
<linearGradient id="paint8_linear_0_203" x1="32.7412" y1="7.48288" x2="13.0875" y2="16.6715" gradientUnits="userSpaceOnUse">
<stop stop-color="#FF52C1"/>
<stop offset="1" stop-color="#9952FF"/>
</linearGradient>
<linearGradient id="paint9_linear_0_203" x1="24.5971" y1="9.66254" x2="22.5064" y2="9.7264" gradientUnits="userSpaceOnUse">
<stop stop-color="#FF52C1"/>
<stop offset="1" stop-color="#9952FF"/>
</linearGradient>
<linearGradient id="paint10_linear_0_203" x1="27.1816" y1="18.5322" x2="25.0946" y2="18.6411" gradientUnits="userSpaceOnUse">
<stop stop-color="#FF52C1"/>
<stop offset="1" stop-color="#9952FF"/>
</linearGradient>
<linearGradient id="paint11_linear_0_203" x1="5.94095" y1="9.66034" x2="3.84815" y2="9.72433" gradientUnits="userSpaceOnUse">
<stop stop-color="#FF52C1"/>
<stop offset="1" stop-color="#9952FF"/>
</linearGradient>
<linearGradient id="paint12_linear_0_203" x1="8.52534" y1="18.5312" x2="6.43836" y2="18.6401" gradientUnits="userSpaceOnUse">
<stop stop-color="#FF52C1"/>
<stop offset="1" stop-color="#9952FF"/>
</linearGradient>
<linearGradient id="paint13_linear_0_203" x1="11.1105" y1="9.66107" x2="9.01983" y2="9.72493" gradientUnits="userSpaceOnUse">
<stop stop-color="#FF52C1"/>
<stop offset="1" stop-color="#9952FF"/>
</linearGradient>
<linearGradient id="paint14_linear_0_203" x1="12.3428" y1="7.48006" x2="-7.3119" y2="16.6701" gradientUnits="userSpaceOnUse">
<stop stop-color="#FF52C1"/>
<stop offset="1" stop-color="#9952FF"/>
</linearGradient>
</defs>
</svg>
